<svg width="960" height="250" viewBox="0 0 960 250" xmlns="http://www.w3.org/2000/svg" role="img" aria-label="Activity map timeline">
<defs>
<linearGradient id="bg" x1="0" y1="0" x2="1" y2="1">
<stop offset="0%" stop-color="#0b1220"/>
<stop offset="100%" stop-color="#111827"/>
</linearGradient>
<linearGradient id="dev" x1="0" y1="0" x2="1" y2="0">
<stop offset="0%" stop-color="#22d3ee"/>
<stop offset="100%" stop-color="#38bdf8"/>
</linearGradient>
<style>
.title { fill: #e5e7eb; font: 700 20px "Consolas", "Courier New", monospace; letter-spacing: 1px; }
.sub { fill: #94a3b8; font: 11px "Consolas", "Courier New", monospace; }
.label { fill: #dbeafe; font: 600 11px "Consolas", "Courier New", monospace; }
.tick { fill: #94a3b8; font: 10px "Consolas", "Courier New", monospace; }
.devText { fill: #0b1220; font: 700 10px "Consolas", "Courier New", monospace; }
.restText { fill: #f1f5f9; font: 700 10px "Consolas", "Courier New", monospace; }
.track { fill: #1f2937; }
.rest { fill: #475569; }
</style>
</defs>
<rect x="0" y="0" width="960" height="250" rx="14" fill="url(#bg)"/>
<rect x="18" y="16" width="924" height="218" rx="10" fill="#0f172a" stroke="#1f2937" stroke-width="1.5"/>
<text class="title" x="42" y="45">ACTIVITY MAP</text>
<text class="sub" x="42" y="64">Based on GitHub contribution graph</text>
<text class="sub" x="680" y="45">UPDATED 2026-03-27</text>
<text class="sub" x="610" y="64">LAST 6M UNITS 517 / ACTIVE 45 (24.7%)</text>
<rect class="track" x="72" y="108" width="816" height="30" rx="15"/>
<rect x="72" y="108" width="18" height="30" rx="15" fill="url(#dev)"/>
<rect x="90" y="108" width="54" height="30" rx="15" fill="#475569"/>
<text class="restText" x="117" y="127" text-anchor="middle">REST</text>
<rect x="144" y="108" width="255" height="30" rx="15" fill="url(#dev)"/>
<text class="devText" x="271" y="127" text-anchor="middle">DEV</text>
<rect x="399" y="108" width="220" height="30" rx="15" fill="#475569"/>
<text class="restText" x="509" y="127" text-anchor="middle">REST</text>
<rect x="619" y="108" width="54" height="30" rx="15" fill="url(#dev)"/>
<text class="devText" x="646" y="127" text-anchor="middle">DEV</text>
<rect x="673" y="108" width="116" height="30" rx="15" fill="#475569"/>
<text class="restText" x="731" y="127" text-anchor="middle">REST</text>
<rect x="789" y="108" width="23" height="30" rx="15" fill="url(#dev)"/>
<rect x="812" y="108" width="76" height="30" rx="15" fill="#475569"/>
<text class="restText" x="850" y="127" text-anchor="middle">REST</text>
<line x1="72" y1="144" x2="72" y2="158" stroke="#64748b" stroke-width="1"/>
<text class="tick" x="72" y="173" text-anchor="middle">2025-09-27</text>
<line x1="399" y1="144" x2="399" y2="158" stroke="#64748b" stroke-width="1"/>
<text class="tick" x="399" y="173" text-anchor="middle">2025-12-09</text>
<line x1="619" y1="144" x2="619" y2="158" stroke="#64748b" stroke-width="1"/>
<text class="tick" x="619" y="173" text-anchor="middle">2026-01-27</text>
<line x1="789" y1="144" x2="789" y2="158" stroke="#64748b" stroke-width="1"/>
<text class="tick" x="789" y="173" text-anchor="middle">2026-03-06</text>
<line x1="888" y1="144" x2="888" y2="158" stroke="#64748b" stroke-width="1"/>
<text class="tick" x="888" y="173" text-anchor="middle">NOW</text>
<text class="label" x="72" y="204">2025-09-27 ~ 2025-09-30 DEV</text>
<text class="label" x="72" y="222">2025-10-01 ~ 2025-10-12 REST</text>
<text class="label" x="72" y="240">2026-03-11 ~ NOW REST</text>
<text class="label" x="560" y="222">@JWookLe contribution timeline</text>
</svg>